<svg id="Layer_1" data-name="Layer 1" xmlns="http://www.w3.org/2000/svg" viewBox="0 0 200.18 55.01"><defs><style>.cls-1{fill:#fff;}</style></defs><title>Artboard 1</title><path class="cls-1" d="M33.92,11.53a4.73,4.73,0,0,1-1.17,1.33,2.63,2.63,0,0,1-1.57.44,4,4,0,0,1-1.83-.53l-2.21-1.21a19.26,19.26,0,0,0-2.83-1.2,11.49,11.49,0,0,0-3.62-.53,7.85,7.85,0,0,0-5.23,1.49,5.12,5.12,0,0,0-1.72,4,3.75,3.75,0,0,0,1,2.7,8.77,8.77,0,0,0,2.72,1.84,28.52,28.52,0,0,0,3.84,1.43q2.16.64,4.41,1.44a40.55,40.55,0,0,1,4.42,1.86A14.83,14.83,0,0,1,34,27.38a12.77,12.77,0,0,1,2.72,4,14.42,14.42,0,0,1,1,5.75,18.75,18.75,0,0,1-1.29,7,16.51,16.51,0,0,1-3.75,5.67,17.3,17.3,0,0,1-6.06,3.81A22.76,22.76,0,0,1,18.47,55a26.51,26.51,0,0,1-5.11-.51,30.81,30.81,0,0,1-5-1.46A29.92,29.92,0,0,1,3.73,50.8,19.31,19.31,0,0,1,0,47.92l3.69-5.84A3.12,3.12,0,0,1,4.84,41a3.25,3.25,0,0,1,1.59-.41,4.18,4.18,0,0,1,2.23.71l2.55,1.55a20.76,20.76,0,0,0,3.27,1.55,12.23,12.23,0,0,0,4.36.7,8.37,8.37,0,0,0,5.29-1.49A5.72,5.72,0,0,0,26,38.87a4.49,4.49,0,0,0-1-3.07,8,8,0,0,0-2.72-2,25.24,25.24,0,0,0-3.82-1.36c-1.43-.4-2.9-.83-4.4-1.32a32.61,32.61,0,0,1-4.4-1.77,13.69,13.69,0,0,1-3.82-2.77A12.87,12.87,0,0,1,3.1,22.33a17,17,0,0,1-1-6.33,15.07,15.07,0,0,1,1.22-5.91A15.3,15.3,0,0,1,6.87,5a17.72,17.72,0,0,1,5.8-3.6A21.42,21.42,0,0,1,20.54,0a29.31,29.31,0,0,1,4.82.39,26,26,0,0,1,4.46,1.14,25.22,25.22,0,0,1,3.93,1.81A18.35,18.35,0,0,1,37,5.73Z"/><path class="cls-1" d="M57.64,54.42H45.08V.59H57.64Z"/><path class="cls-1" d="M97.61,11.53a4.56,4.56,0,0,1-1.16,1.33,2.65,2.65,0,0,1-1.57.44,3.9,3.9,0,0,1-1.83-.53l-2.22-1.21A18.67,18.67,0,0,0,88,10.36a11.54,11.54,0,0,0-3.62-.53,7.85,7.85,0,0,0-5.23,1.49,5.09,5.09,0,0,0-1.72,4,3.75,3.75,0,0,0,1,2.7,8.84,8.84,0,0,0,2.71,1.84A28.52,28.52,0,0,0,85,21.34c1.45.43,2.92.91,4.42,1.44a40.4,40.4,0,0,1,4.41,1.86,14.72,14.72,0,0,1,3.85,2.74,12.74,12.74,0,0,1,2.71,4,14.41,14.41,0,0,1,1,5.75,18.55,18.55,0,0,1-1.3,7,16.23,16.23,0,0,1-3.75,5.67,17.12,17.12,0,0,1-6.06,3.81A22.74,22.74,0,0,1,82.17,55a26.69,26.69,0,0,1-5.12-.51A31,31,0,0,1,72,53a29.47,29.47,0,0,1-4.58-2.24,19.31,19.31,0,0,1-3.73-2.88l3.69-5.84A3,3,0,0,1,68.54,41a3.25,3.25,0,0,1,1.59-.41,4.2,4.2,0,0,1,2.23.71l2.55,1.55a20.76,20.76,0,0,0,3.27,1.55,12.19,12.19,0,0,0,4.36.7,8.32,8.32,0,0,0,5.28-1.49,5.69,5.69,0,0,0,1.89-4.75,4.49,4.49,0,0,0-1-3.07,8,8,0,0,0-2.71-2,25.38,25.38,0,0,0-3.83-1.36c-1.42-.4-2.89-.83-4.39-1.32a32.09,32.09,0,0,1-4.4-1.77,13.69,13.69,0,0,1-3.82-2.77,12.87,12.87,0,0,1-2.72-4.29,17,17,0,0,1-1-6.33A14.9,14.9,0,0,1,67,10.09,15.16,15.16,0,0,1,70.57,5a17.72,17.72,0,0,1,5.8-3.6A21.39,21.39,0,0,1,84.24,0a29.31,29.31,0,0,1,4.82.39,25.65,25.65,0,0,1,4.45,1.14,24.91,24.91,0,0,1,3.94,1.81,18.35,18.35,0,0,1,3.27,2.39Z"/><path class="cls-1" d="M107.66,54.42V.59h19.81a37.56,37.56,0,0,1,9.49,1,18.25,18.25,0,0,1,6.4,2.91A11.08,11.08,0,0,1,147,9.13a15.45,15.45,0,0,1,1.12,6,11.93,11.93,0,0,1-.51,3.49,10.45,10.45,0,0,1-1.63,3.16,12.39,12.39,0,0,1-2.84,2.68,18.73,18.73,0,0,1-4.18,2.09q5.33,1.29,7.87,4.19a10.84,10.84,0,0,1,2.55,7.44A15.41,15.41,0,0,1,148,44.6a14.62,14.62,0,0,1-3.9,5.15,18.47,18.47,0,0,1-6.33,3.44,27.79,27.79,0,0,1-8.61,1.23Zm12.49-31.18h6.51a21.19,21.19,0,0,0,3.73-.3,7.59,7.59,0,0,0,2.82-1,4.75,4.75,0,0,0,1.78-2,7.72,7.72,0,0,0,.61-3.25,9.18,9.18,0,0,0-.48-3.2,4.63,4.63,0,0,0-1.48-2,6.19,6.19,0,0,0-2.53-1.11,17.59,17.59,0,0,0-3.64-.33h-7.32Zm0,8.35V45H129a11,11,0,0,0,4-.63,6.44,6.44,0,0,0,2.46-1.62,5.49,5.49,0,0,0,1.22-2.26,9.91,9.91,0,0,0,.33-2.55,8.5,8.5,0,0,0-.39-2.66,4.41,4.41,0,0,0-1.33-2A6.62,6.62,0,0,0,132.79,32a14.82,14.82,0,0,0-3.92-.44Z"/><path class="cls-1" d="M168.63,34.51V54.42H156.14V.59h17.51a36,36,0,0,1,10,1.2,18.56,18.56,0,0,1,6.72,3.35,12.56,12.56,0,0,1,3.79,5.06,16.69,16.69,0,0,1,1.18,6.35,17,17,0,0,1-.7,4.95,14.84,14.84,0,0,1-2.09,4.31,16,16,0,0,1-3.4,3.53,18.23,18.23,0,0,1-4.63,2.55,11.18,11.18,0,0,1,2.34,1.55,9.17,9.17,0,0,1,1.91,2.25l11.45,18.73H188.87a4.78,4.78,0,0,1-4.5-2.36l-8.94-15.63A3.85,3.85,0,0,0,174,35a4.7,4.7,0,0,0-2.24-.44Zm0-8.61h5a12.6,12.6,0,0,0,4.34-.65,7.69,7.69,0,0,0,2.94-1.79,6.73,6.73,0,0,0,1.66-2.68,10.1,10.1,0,0,0,.52-3.3,6.94,6.94,0,0,0-2.31-5.55q-2.31-2-7.15-2h-5Z"/></svg>